<svg t="1683533001675" class="icon" viewBox="0 0 1024 1024" version="1.1" xmlns="http://www.w3.org/2000/svg" p-id="3409" width="200" height="200"><path d="M182.068556 539.959947c62.287682 32.300079 120.099603 48.446728 173.422199 48.446728 79.987285 0 75.07751-48.446728 154.128954-48.446728 79.051444 0 94.330066 48.446728 174.317351 48.446728 53.329377 0 105.004079-16.146649 155.024106-48.446728-45.354384-216.396291-153.532185-327.225642-324.546967-332.47449-171.001219-5.248848-281.783099 105.573722-332.345643 332.47449z" fill="#8FDD77" p-id="3410"></path><path d="M804.029881 648.083497a20.344371 20.344371 0 1 1 28.400742 29.133139C727.819868 779.189404 621.907073 830.796291 514.949934 830.796291c-106.943576 0-213.181881-51.593325-318.497908-153.532185a20.344371 20.344371 0 1 1 28.29902-29.22808c98.290437 95.130278 194.946543 142.071523 290.198888 142.071524 95.225219 0 191.508344-46.920901 289.079947-142.024053z" fill="#131313" p-id="3411"></path><path d="M510.311417 178.013245c-179.464477 0-304.765457 128.766305-342.29404 328.602278-25.213457 134.259285 26.189987 211.276291 151.124769 234.841854 37.921907 7.154437 80.929907-0.861245 128.962967-23.280741l3.824741-1.810649a140.776265 140.776265 0 0 1 115.29155-3.02453c45.218755 18.906702 86.605987 28.468556 124.222728 28.468556 133.560795 0 187.81245-87.141722 161.195232-235.045298-35.873907-199.273113-162.320954-328.75147-342.327947-328.75147z m0 40.688742c158.387709 0 269.630728 113.921695 302.276662 295.271417 22.541563 125.226384-16.01102 187.147868-121.143947 187.147868-30.638623 0-65.393589-7.778331-104.197086-23.531656l-4.333351-1.790305a181.403974 181.403974 0 0 0-145.509721 2.441325l-6.60514 3.11947c-40.804026 19.03555-75.525086 25.50506-104.115708 20.113801-102.671258-19.367841-139.779391-74.969007-118.675497-187.351311C242.206517 332.020132 352.466225 218.701987 510.311417 218.701987z" fill="#131313" p-id="3412"></path><path d="M577.224053 623.466808m-20.344371 0a20.344371 20.344371 0 1 0 40.688742 0 20.344371 20.344371 0 1 0-40.688742 0Z" fill="#131313" p-id="3413"></path><path d="M445.846887 623.466808m-20.34437 0a20.344371 20.344371 0 1 0 40.688741 0 20.344371 20.344371 0 1 0-40.688741 0Z" fill="#131313" p-id="3414"></path><path d="M643.248318 457.368583m-40.688742 0a40.688742 40.688742 0 1 0 81.377484 0 40.688742 40.688742 0 1 0-81.377484 0Z" fill="#131313" p-id="3415"></path><path d="M385.552954 457.368583m-40.688742 0a40.688742 40.688742 0 1 0 81.377483 0 40.688742 40.688742 0 1 0-81.377483 0Z" fill="#131313" p-id="3416"></path><path d="M497.121483 835.299179a16.953642 16.953642 0 0 1 23.090861-0.827338l0.88159 0.827338 23.22649 23.219708a16.953642 16.953642 0 0 1-23.090861 24.80657l-0.881589-0.827338-23.226491-23.22649a16.953642 16.953642 0 0 1 0-23.97245z" fill="#131313" p-id="3417"></path><path d="M521.100715 835.299179a16.953642 16.953642 0 0 0-23.090861-0.827338l-0.888371 0.827338-23.22649 23.219708a16.953642 16.953642 0 0 0 23.090861 24.80657l0.88159-0.827338 23.233271-23.22649a16.953642 16.953642 0 0 0 0-23.97245z" fill="#131313" p-id="3418"></path><path d="M509.111099 682.526517a16.953642 16.953642 0 0 1 16.912954 15.841483l0.040689 1.112159v147.801854a16.953642 16.953642 0 0 1-33.873378 1.118941l-0.033907-1.118941v-147.801854a16.953642 16.953642 0 0 1 16.953642-16.953642z" fill="#131313" p-id="3419"></path></svg>